<?xml version="1.0" encoding="utf-8"?>
<!-- Svg Vector Icons : http://www.onlinewebfonts.com/icon -->
<!DOCTYPE svg PUBLIC "-//W3C//DTD SVG 1.1//EN" "http://www.w3.org/Graphics/SVG/1.1/DTD/svg11.dtd">
<svg version="1.1" xmlns="http://www.w3.org/2000/svg" xmlns:xlink="http://www.w3.org/1999/xlink" x="0px" y="0px" viewBox="0 0 256 256" enable-background="new 0 0 256 256" xml:space="preserve">
<metadata> Svg Vector Icons : http://www.onlinewebfonts.com/icon </metadata>
<g>
  <g>
    <path fill="#000000" stroke="#000000" stroke-width="4" d="M211.5,44.6C165.4-1.5,90.7-1.5,44.6,44.6c-46.1,46.1-46.1,120.8,0,166.9c46.1,46.1,120.8,46.1,166.9,0C257.5,165.3,257.5,90.6,211.5,44.6L211.5,44.6z M203.9,203.9c-41.9,41.9-109.8,41.9-151.7,0C10.3,162,10.3,94,52.2,52.1c41.9-41.9,109.8-41.9,151.7,0C245.7,94,245.7,162,203.9,203.9L203.9,203.9z M176.7,72.4l7,7L79.3,183.6l-7-7L176.7,72.4L176.7,72.4z M183.6,176.7l-7,7L75.9,82.8l6.9-7L183.6,176.7L183.6,176.7z"/>
  </g>
</g>
</svg>
