<svg xmlns="http://www.w3.org/2000/svg" xmlns:xlink="http://www.w3.org/1999/xlink" viewBox="0 0 430 430" width="430" height="430" preserveAspectRatio="xMidYMid meet" style="width: 100%; height: 100%; transform: translate3d(0px, 0px, 0px); content-visibility: visible;"><defs><clipPath id="__lottie_element_10"><rect width="430" height="430" x="0" y="0"/></clipPath><clipPath id="__lottie_element_12"><path d="M0,0 L430,0 L430,430 L0,430z"/></clipPath></defs><g clip-path="url(#__lottie_element_10)"><g clip-path="url(#__lottie_element_12)" transform="matrix(1,0,0,1,0,0)" opacity="1" style="display: block;"><g transform="matrix(1,0,0,1,-35,-72.5)" opacity="1" style="display: block;"><g opacity="1" transform="matrix(1,0,0,1,250,276.6889953613281)"><path class="secondary" fill="rgb(235,230,238)" fill-opacity="1" d=" M0,133.2740020751953 C0,133.2740020751953 0,133.2740020751953 0,133.2740020751953 C-46.05400085449219,133.2740020751953 -82.64800262451172,94.5770034790039 -80.0790023803711,48.595001220703125 C-80.0790023803711,48.595001220703125 -73.41400146484375,-70.68699645996094 -73.41400146484375,-70.68699645996094 C-71.4520034790039,-105.80400085449219 -42.40299987792969,-133.2740020751953 -7.23199987411499,-133.2740020751953 C-7.23199987411499,-133.2740020751953 7.232999801635742,-133.2740020751953 7.232999801635742,-133.2740020751953 C42.40399932861328,-133.2740020751953 71.4520034790039,-105.8030014038086 73.41400146484375,-70.68699645996094 C73.41400146484375,-70.68699645996094 80.0790023803711,48.595001220703125 80.0790023803711,48.595001220703125 C82.64800262451172,94.5770034790039 46.05400085449219,133.2740020751953 0,133.2740020751953z"/></g><g opacity="0.5" transform="matrix(1,0,0,1,250,204.30599975585938)" style="mix-blend-mode: multiply;"><path class="secondary" fill="rgb(235,230,238)" fill-opacity="1" d=" M-75.53199768066406,39.60300064086914 C-45.44900131225586,67.98699951171875 45.44900131225586,67.98699951171875 75.53199768066406,39.60300064086914 C75.53199768066406,39.60300064086914 73.41400146484375,1.6950000524520874 73.41400146484375,1.6950000524520874 C71.4520034790039,-33.42100143432617 42.40399932861328,-60.89099884033203 7.232999801635742,-60.89099884033203 C7.232999801635742,-60.89099884033203 -7.23199987411499,-60.89099884033203 -7.23199987411499,-60.89099884033203 C-42.40299987792969,-60.89099884033203 -71.4520034790039,-33.422000885009766 -73.41400146484375,1.6950000524520874 C-73.41400146484375,1.6950000524520874 -75.53199768066406,39.60300064086914 -75.53199768066406,39.60300064086914z"/></g><g opacity="0.5" transform="matrix(1,0,0,1,212.23399353027344,204.30599975585938)" style="mix-blend-mode: multiply;"><path class="secondary" fill="rgb(235,230,238)" fill-opacity="1" d=" M30.534000396728516,-60.89099884033203 C-4.63700008392334,-60.89099884033203 -33.68600082397461,-33.422000885009766 -35.64799880981445,1.6950000524520874 C-35.64799880981445,1.6950000524520874 -37.76599884033203,39.60300064086914 -37.76599884033203,39.60300064086914 C-22.724000930786133,53.79499816894531 7.520999908447266,60.89099884033203 37.76599884033203,60.89099884033203 C37.76599884033203,60.89099884033203 37.76599884033203,-60.89099884033203 37.76599884033203,-60.89099884033203 C37.76599884033203,-60.89099884033203 30.534000396728516,-60.89099884033203 30.534000396728516,-60.89099884033203z"/></g><g opacity="0.5" transform="matrix(1,0,0,1,214.2030029296875,275.60101318359375)" style="mix-blend-mode: multiply;"><path class="secondary" fill="rgb(235,230,238)" fill-opacity="1" d=" M-28.19700050354004,54.06999969482422 C-28.19700050354004,54.06999969482422 -21.3700008392334,-68.0999984741211 -21.3700008392334,-68.0999984741211 C-19.398000717163086,-103.39600372314453 9.295999526977539,-131.1300048828125 44.40999984741211,-132.1529998779297 C43.95000076293945,-132.16200256347656 43.492000579833984,-132.18600463867188 43.02899932861328,-132.18600463867188 C43.02899932861328,-132.18600463867188 28.56399917602539,-132.18600463867188 28.56399917602539,-132.18600463867188 C-6.60699987411499,-132.18600463867188 -35.654998779296875,-104.71600341796875 -37.617000579833984,-69.5989990234375 C-37.617000579833984,-69.5989990234375 -44.28200149536133,49.68299865722656 -44.28200149536133,49.68299865722656 C-46.49300003051758,89.2509994506836 -19.70400047302246,123.4219970703125 17.158000946044922,132.18600463867188 C-11.185999870300293,118.0250015258789 -30.091999053955078,87.98300170898438 -28.19700050354004,54.06999969482422z"/></g></g><g transform="matrix(1,0,0,1,-35.5,-110.19647216796875)" opacity="1" style="display: block;"><g opacity="1" transform="matrix(1,0,0,1,250.83200073242188,209.4040069580078)"><path class="tertiary" fill="rgb(102,237,120)" fill-opacity="1" d=" M0,28.052000045776367 C0,28.052000045776367 0,28.052000045776367 0,28.052000045776367 C6.934999942779541,28.052000045776367 12.555999755859375,22.430999755859375 12.555999755859375,15.496000289916992 C12.555999755859375,15.496000289916992 12.555999755859375,-15.496000289916992 12.555999755859375,-15.496000289916992 C12.555999755859375,-22.430999755859375 6.934999942779541,-28.052000045776367 0,-28.052000045776367 C0,-28.052000045776367 0,-28.052000045776367 0,-28.052000045776367 C-6.934999942779541,-28.052000045776367 -12.555999755859375,-22.430999755859375 -12.555999755859375,-15.496000289916992 C-12.555999755859375,-15.496000289916992 -12.555999755859375,15.496000289916992 -12.555999755859375,15.496000289916992 C-12.555999755859375,22.430999755859375 -6.934999942779541,28.052000045776367 0,28.052000045776367z"/></g><g opacity="0.5" transform="matrix(1,0,0,1,246.0989990234375,209.87600708007812)" style="mix-blend-mode: multiply;"><path class="tertiary" fill="rgb(102,237,120)" fill-opacity="1" d=" M-1.6430000066757202,16.54199981689453 C-1.6430000066757202,16.54199981689453 -1.6430000066757202,-16.54199981689453 -1.6430000066757202,-16.54199981689453 C-1.6430000066757202,-22.200000762939453 2.443000078201294,-27.268999099731445 7.822999954223633,-28.235000610351562 C7.1579999923706055,-28.354000091552734 6.478000164031982,-28.427000045776367 5.7789998054504395,-28.427000045776367 C5.7789998054504395,-28.427000045776367 3.687000036239624,-28.427000045776367 3.687000036239624,-28.427000045776367 C-2.6700000762939453,-28.427000045776367 -7.75600004196167,-22.158000946044922 -7.822999954223633,-16.54199981689453 C-7.822999954223633,-16.54199981689453 -7.761000156402588,16.229000091552734 -7.761000156402588,16.229000091552734 C-7.75600004196167,20.841999053955078 -2.6700000762939453,27.520000457763672 3.687000036239624,27.520000457763672 C3.687000036239624,27.520000457763672 5.7789998054504395,27.520000457763672 5.7789998054504395,27.520000457763672 C6.478000164031982,27.520000457763672 7.1579999923706055,27.447999954223633 7.822999954223633,27.32900047302246 C2.443000078201294,26.363000869750977 -1.6430000066757202,22.200000762939453 -1.6430000066757202,16.54199981689453z"/></g></g><g transform="matrix(1,0,0,1,215,20.26604461669922)" opacity="1" style="display: block;"><g opacity="1" transform="matrix(1,0,0,1,0,0)"><path stroke-linecap="round" stroke-linejoin="round" fill-opacity="0" class="primary" stroke="rgb(18,19,48)" stroke-opacity="1" stroke-width="7" d=" M-25.617000579833984,12.807999610900879 C-25.617000579833984,12.807999610900879 0,-12.807999610900879 0,-12.807999610900879 C0,-12.807999610900879 25.617000579833984,12.807999610900879 25.617000579833984,12.807999610900879"/></g></g><g transform="matrix(1,0,0,1,-35.5,-71.5)" opacity="1" style="display: none;"><g opacity="1" transform="matrix(1,0,0,1,250.83200073242188,209.4040069580078)"><path class="tertiary" fill="rgb(102,237,120)" fill-opacity="1" d=" M0,37.36000061035156 C0,37.36000061035156 0,37.36000061035156 0,37.36000061035156 C6.934999942779541,37.36000061035156 12.555999755859375,31.73900032043457 12.555999755859375,24.804000854492188 C12.555999755859375,24.804000854492188 12.555999755859375,-6.188000202178955 12.555999755859375,-6.188000202178955 C12.555999755859375,-13.123000144958496 6.934999942779541,-18.743999481201172 0,-18.743999481201172 C0,-18.743999481201172 0,-18.743999481201172 0,-18.743999481201172 C-6.934999942779541,-18.743999481201172 -12.555999755859375,-13.123000144958496 -12.555999755859375,-6.188000202178955 C-12.555999755859375,-6.188000202178955 -12.555999755859375,24.804000854492188 -12.555999755859375,24.804000854492188 C-12.555999755859375,31.73900032043457 -6.934999942779541,37.36000061035156 0,37.36000061035156z"/></g><g opacity="0.5" transform="matrix(1,0,0,1,246.0989990234375,209.87600708007812)" style="mix-blend-mode: multiply;"><path class="tertiary" fill="rgb(102,237,120)" fill-opacity="1" d=" M-1.6430000066757202,25.850000381469727 C-1.6430000066757202,25.850000381469727 -1.6430000066757202,-7.234000205993652 -1.6430000066757202,-7.234000205993652 C-1.6430000066757202,-12.892000198364258 2.443000078201294,-17.586000442504883 7.822999954223633,-18.552000045776367 C7.1579999923706055,-18.67099952697754 6.478000164031982,-18.743999481201172 5.7789998054504395,-18.743999481201172 C5.7789998054504395,-18.743999481201172 3.687000036239624,-18.743999481201172 3.687000036239624,-18.743999481201172 C-2.6700000762939453,-18.743999481201172 -7.822999954223633,-13.590999603271484 -7.822999954223633,-7.234000205993652 C-7.822999954223633,-7.234000205993652 -7.822999954223633,25.850000381469727 -7.822999954223633,25.850000381469727 C-7.822999954223633,32.207000732421875 -2.6700000762939453,37.36000061035156 3.687000036239624,37.36000061035156 C3.687000036239624,37.36000061035156 5.7789998054504395,37.36000061035156 5.7789998054504395,37.36000061035156 C6.478000164031982,37.36000061035156 7.1579999923706055,37.2869987487793 7.822999954223633,37.167999267578125 C2.443000078201294,36.20199966430664 -1.6430000066757202,31.507999420166016 -1.6430000066757202,25.850000381469727z"/></g></g><g transform="matrix(1,0,0,-1,215,388.99700927734375)" opacity="1" style="display: block;"><g opacity="1" transform="matrix(1,0,0,1,0,0)"><path stroke-linecap="round" stroke-linejoin="round" fill-opacity="0" class="primary" stroke="rgb(18,19,48)" stroke-opacity="1" stroke-width="7" d=" M-25.617000579833984,12.807999610900879 C-25.617000579833984,12.807999610900879 0,-12.807999610900879 0,-12.807999610900879 C0,-12.807999610900879 25.617000579833984,12.807999610900879 25.617000579833984,12.807999610900879"/></g></g><g transform="matrix(1,0,0,1,-35,-46)" opacity="1" style="display: block;"><g opacity="1" transform="matrix(1,0,0,1,250,224.47999572753906)"/><g opacity="1" transform="matrix(1,0,0,1,250,182.56100463867188)"/></g><g transform="matrix(1,0,0,1,-35,-46)" opacity="1" style="display: block;"><g opacity="1" transform="matrix(1,0,0,1,250,224.47999572753906)"><path stroke-linecap="round" stroke-linejoin="round" fill-opacity="0" class="primary" stroke="rgb(18,19,48)" stroke-opacity="1" stroke-width="7" d=" M0,158.63900756835938 C0,158.63900756835938 0,158.63900756835938 0,158.63900756835938 C-46.05400085449219,158.63900756835938 -82.64800262451172,119.94300079345703 -80.0790023803711,73.96099853515625 C-80.0790023803711,73.96099853515625 -73.41400146484375,-45.321998596191406 -73.41400146484375,-45.321998596191406 C-72.24099731445312,-66.31600189208984 -61.387001037597656,-84.5770034790039 -45.332000732421875,-95.86900329589844 C-34.53200149536133,-103.46499633789062 -21.37700080871582,-107.90799713134766 -7.23199987411499,-107.90799713134766 C-7.23199987411499,-107.90799713134766 7.232999801635742,-107.90799713134766 7.232999801635742,-107.90799713134766 C42.40399932861328,-107.90799713134766 71.4520034790039,-80.43800354003906 73.41400146484375,-45.321998596191406 C73.41400146484375,-45.321998596191406 80.0790023803711,73.96099853515625 80.0790023803711,73.96099853515625 C82.64800262451172,119.94300079345703 46.05400085449219,158.63900756835938 0,158.63900756835938z M-0.12319498509168625,-106.73004150390625 C-0.12319498509168625,-106.73004150390625 0,-107.91200256347656 0,-107.91200256347656 M75.53199768066406,-7.414000034332275 C45.44900131225586,20.969999313354492 -45.44900131225586,20.969999313354492 -75.53199768066406,-7.414000034332275 M0,13.869999885559082 C0,13.869999885559082 -0.12319498509168625,-49.69504165649414 -0.12319498509168625,-49.69504165649414"/></g><g opacity="1" transform="matrix(1,0,0,1,250,182.56100463867188)"><path stroke-linecap="round" stroke-linejoin="round" fill-opacity="0" class="primary" stroke="rgb(18,19,48)" stroke-opacity="1" stroke-width="7" d=" M-0.24919497966766357,-8.211040496826172 C-0.24919497966766357,-8.211040496826172 0.0028050134424120188,-8.211040496826172 0.0028050134424120188,-8.211040496826172 C6.867805004119873,-8.211040496826172 12.432805061340332,-13.776040077209473 12.432805061340332,-20.641040802001953 C12.432805061340332,-20.641040802001953 12.432805061340332,-51.885040283203125 12.432805061340332,-51.885040283203125 C12.432805061340332,-58.75004196166992 6.867805004119873,-64.3150405883789 0.0028050134424120188,-64.3150405883789 C0.0028050134424120188,-64.3150405883789 -0.24919497966766357,-64.3150405883789 -0.24919497966766357,-64.3150405883789 C-7.114194869995117,-64.3150405883789 -12.679195404052734,-58.75004196166992 -12.679195404052734,-51.885040283203125 C-12.679195404052734,-51.885040283203125 -12.679195404052734,-20.641040802001953 -12.679195404052734,-20.641040802001953 C-12.679195404052734,-13.776040077209473 -7.114194869995117,-8.211040496826172 -0.24919497966766357,-8.211040496826172z"/></g></g></g></g></svg>