<svg width="17" height="17" viewBox="0 0 17 17" fill="none" xmlns="http://www.w3.org/2000/svg">
<path fill-rule="evenodd" clip-rule="evenodd" d="M12.3939 11.1789C13.3461 10.0403 13.9154 8.59616 13.9154 7.02477C13.9154 3.3492 10.8003 0.369568 6.95771 0.369568C3.11507 0.369568 0 3.3492 0 7.02477C0 10.7003 3.11507 13.68 6.95771 13.68C8.60053 13.68 10.1104 13.1354 11.3007 12.2246L15.6803 16.4139C15.9822 16.7027 16.4717 16.7027 16.7736 16.4139C17.0755 16.1251 17.0755 15.6569 16.7736 15.3681L12.3939 11.1789ZM6.95771 12.2084C3.96471 12.2084 1.5384 9.88765 1.5384 7.02477C1.5384 4.1619 3.96471 1.84108 6.95771 1.84108C9.95072 1.84108 12.377 4.1619 12.377 7.02477C12.377 9.88765 9.95072 12.2084 6.95771 12.2084Z" fill="#151618"/>
</svg>
